<svg width="211" height="211" viewBox="0 0 211 211" fill="none" xmlns="http://www.w3.org/2000/svg">
<path d="M148.359 99.3534C148.359 99.0476 148.375 53.9349 148.375 53.9349L81.1875 20.3438L14 53.9375V98.4374C13.9738 126.304 27.9021 152.334 51.1014 167.774L81.1875 187.823L104.365 172.384C116.891 188.431 138.53 194.243 157.411 186.633C176.293 179.023 187.854 159.831 185.755 139.583C183.654 119.334 168.4 102.924 148.359 99.3507V99.3534ZM81.1875 181.373L54.0842 163.307C32.3782 148.863 19.3475 124.509 19.375 98.4374V57.2588L81.1875 26.3526L143 57.2588V98.7353C142.108 98.6815 141.223 98.5988 140.313 98.5988C139.402 98.5988 138.515 98.6815 137.625 98.7353C137.625 98.6356 137.625 60.5736 137.625 60.5736L81.1875 32.3575L24.75 60.5762V98.4374C24.7304 122.71 36.8622 145.381 57.067 158.83L81.1875 174.901L98.7691 163.187C99.5211 164.827 100.37 166.421 101.311 167.961L81.1875 181.373ZM96.7588 158.07L81.1875 168.444L60.051 154.359C59.0078 153.662 57.9973 152.931 57 152.182V128.161H51.625V147.672C48.6751 144.937 45.9771 141.941 43.5625 138.722V123.105C43.5638 119.41 46.0768 116.188 49.6606 115.288L67.8865 110.719C68.4718 116.547 72.7668 121.321 78.5 122.517V133.536H83.875V122.517C89.6083 121.322 93.902 116.547 94.4859 110.719L106.45 113.724C95.5423 125.719 91.8496 142.616 96.7588 158.068V158.07ZM67.75 77.0988H75.1787C79.3268 77.0936 83.4236 76.175 87.178 74.4113H87.9063L94.625 83.3688V94.5676L85.6676 101.286H76.7075L67.75 94.5676V77.0988ZM62.5981 71.7238C63.1427 68.3539 65.2882 65.4578 68.355 63.9566C74.2995 61.3111 80.9973 60.8898 87.2265 62.769L87.8446 63.6613H91.9375C93.4217 63.6613 94.625 64.8647 94.625 66.3488V74.4113L90.5938 69.0363H85.9287L85.3618 69.3185C82.198 70.8945 78.7126 71.7186 75.1787 71.7238H62.5981ZM89.25 105.318V109.349C89.25 113.801 85.64 117.411 81.1875 117.411C76.7351 117.411 73.125 113.801 73.125 109.349V105.318L74.9176 106.661H87.4575L89.25 105.318ZM94.625 105.213V101.286L100 97.2551V66.3488C100 61.895 96.39 58.2863 91.9375 58.2863H90.1502C86.262 55.9229 76.5815 55.4453 69.725 57.5895C62.0365 59.4778 56.7258 66.4984 57 74.4113V77.0988H62.375V97.2551L67.75 101.286V105.199L48.3523 110.077C42.3736 111.569 38.181 116.944 38.1875 123.105V130.362C32.8913 120.555 30.1198 109.584 30.125 98.4374V63.8975L81.1875 38.3663L132.25 63.8975V98.4374C132.25 98.7458 132.232 99.0529 132.229 99.3586C124.391 100.76 117.059 104.194 110.965 109.319L94.625 105.213ZM140.313 184.599C118.049 184.599 100 166.55 100 144.286C100 122.021 118.049 103.974 140.313 103.974C162.576 103.974 180.625 122.021 180.625 144.286C180.6 166.54 162.566 184.573 140.313 184.599Z" fill="#A2C55D"/>
<path d="M193.496 61H159.504C157.569 61 156 62.3431 156 64C156 65.6569 157.569 67 159.504 67H193.496C195.431 67 197 65.6569 197 64C197 62.3431 195.431 61 193.496 61Z" fill="#A2C55D"/>
<path d="M188.923 76H159.077C157.378 76 156 77.3431 156 79C156 80.6569 157.378 82 159.077 82H188.923C190.622 82 192 80.6569 192 79C192 77.3431 190.622 76 188.923 76Z" fill="#A2C55D"/>
<path d="M180.692 91H158.308C157.033 91 156 92.3431 156 94C156 95.6569 157.033 97 158.308 97H180.692C181.967 97 183 95.6569 183 94C183 92.3431 181.967 91 180.692 91Z" fill="#A2C55D"/>
<path d="M125 145.286L135.473 156L156 135" stroke="#A2C55D" stroke-width="6" stroke-linecap="round" stroke-linejoin="round"/>
</svg>
