<svg width="232" height="232" viewBox="0 0 232 232" fill="none" xmlns="http://www.w3.org/2000/svg">
<path d="M70.3367 45.6704C68.582 45.6704 67.1594 47.0934 67.1594 48.8477C67.1594 50.6023 68.582 52.0249 70.3367 52.0249C88.2842 52.0249 102.885 67.0052 102.885 85.4194C102.885 87.174 104.308 88.5967 106.063 88.5967C107.817 88.5967 109.24 87.1737 109.24 85.4194C109.24 63.5017 91.788 45.6704 70.3367 45.6704Z" fill="#A2C55D"/>
<path d="M70.3261 60.7443C68.5714 60.7443 67.1488 62.1672 67.1488 63.9215C67.1488 65.6762 68.5714 67.0988 70.3261 67.0988C80.1539 67.0988 88.1493 75.3172 88.1493 85.419C88.1493 87.1736 89.5723 88.5962 91.3266 88.5962C93.0812 88.5962 94.5039 87.1733 94.5039 85.419C94.5042 71.8134 83.6578 60.7443 70.3261 60.7443Z" fill="#A2C55D"/>
<path d="M70.3878 74.6299C68.6328 74.6299 67.2104 76.0523 67.2104 77.8073C67.2104 79.5621 68.6334 80.9848 70.3878 80.9848C72.684 80.9848 74.5515 82.9305 74.5515 85.3223C74.5515 87.077 75.9742 88.4997 77.7289 88.4997C79.4837 88.4997 80.9064 87.0767 80.9064 85.3223C80.9067 79.4264 76.1877 74.6299 70.3878 74.6299Z" fill="#A2C55D"/>
<path d="M175.002 70.8528H167.959C166.204 70.8528 164.781 72.2754 164.781 74.03C164.781 75.7847 166.204 77.2073 167.959 77.2073H175.002C180.871 77.2073 185.646 81.9823 185.646 87.8513V130.981C185.646 134.361 184.061 137.375 181.597 139.326V131.017C181.597 124.535 176.972 118.967 170.6 117.778L168.546 117.396C169.004 115.991 169.255 114.495 169.255 112.94V105.639C169.255 97.6999 162.796 91.2411 154.857 91.2411C146.918 91.2411 140.46 97.6999 140.46 105.639V112.94C140.46 114.495 140.711 115.991 141.169 117.396L139.115 117.778C132.742 118.967 128.117 124.534 128.117 131.017V140.228C124.906 138.393 122.735 134.937 122.735 130.981V87.8513C122.735 81.9823 127.51 77.2073 133.379 77.2073H140.952C142.706 77.2073 144.129 75.7847 144.129 74.03C144.129 72.2754 142.706 70.8528 140.952 70.8528H133.379C124.006 70.8528 116.38 78.4784 116.38 87.8513V130.981C116.38 140.354 124.006 147.98 133.379 147.98H149.367V157.115C149.367 158.398 150.139 159.556 151.324 160.048C151.719 160.213 152.133 160.292 152.544 160.292C153.367 160.292 154.177 159.972 154.784 159.369L166.246 147.98H175.002C184.374 147.98 192 140.354 192 130.981V87.8513C192 78.4784 184.374 70.8528 175.002 70.8528ZM146.814 105.639C146.814 101.204 150.422 97.5957 154.857 97.5957C159.292 97.5957 162.9 101.204 162.9 105.639V112.94C162.9 117.375 159.292 120.983 154.857 120.983C150.422 120.983 146.814 117.375 146.814 112.94V105.639ZM175.242 141.619C175.162 141.621 175.082 141.625 175.001 141.625H164.935V141.625C164.096 141.625 163.291 141.957 162.696 142.548L155.722 149.479V144.802C155.722 143.048 154.299 141.625 152.545 141.625H134.472V131.016C134.472 127.593 136.915 124.653 140.28 124.025L144.759 123.19C147.36 125.753 150.926 127.337 154.857 127.337C158.788 127.337 162.355 125.752 164.956 123.189L169.435 124.025C172.801 124.652 175.243 127.593 175.243 131.016V141.619H175.242Z" fill="#A2C55D"/>
<path d="M155.165 71.7842C154.575 71.19 153.755 70.8533 152.919 70.8533C152.083 70.8533 151.263 71.19 150.672 71.7842C150.082 72.3723 149.742 73.1923 149.742 74.0307C149.742 74.8663 150.081 75.6864 150.672 76.2773C151.263 76.8679 152.083 77.2082 152.919 77.2082C153.755 77.2082 154.575 76.8682 155.165 76.2773C155.756 75.6832 156.096 74.8666 156.096 74.0307C156.096 73.192 155.757 72.3751 155.165 71.7842Z" fill="#A2C55D"/>
<path d="M88.3947 152.554C87.8038 151.963 86.9873 151.624 86.1482 151.624C85.3126 151.624 84.4926 151.963 83.9019 152.554C83.311 153.145 82.9707 153.965 82.9707 154.801C82.9707 155.64 83.3107 156.457 83.9019 157.048C84.4957 157.642 85.3126 157.981 86.1482 157.981C86.9838 157.981 87.8038 157.642 88.3947 157.048C88.9889 156.457 89.3256 155.639 89.3256 154.801C89.3256 153.965 88.9889 153.146 88.3947 152.554Z" fill="#A2C55D"/>
<path d="M157.94 181.284L133.598 156.942C130.357 153.702 125.26 153.228 121.478 155.814L105.942 166.437C104.681 167.299 102.983 167.141 101.902 166.061L96.7646 160.923C95.5244 159.683 93.513 159.683 92.2709 160.923C91.0303 162.164 91.0303 164.175 92.2709 165.417L97.4083 170.555C100.649 173.795 105.746 174.27 109.528 171.683L125.064 161.06C126.325 160.198 128.024 160.356 129.104 161.436L153.446 185.778C154.685 187.017 154.685 189.033 153.446 190.272C137.837 205.881 112.439 205.881 96.8298 190.272L47.4022 140.844C39.8405 133.282 35.6768 123.229 35.6768 112.536C35.6768 101.842 39.8408 91.7885 47.4025 84.2267C48.0027 83.6266 48.8004 83.2965 49.649 83.2965C50.4978 83.2965 51.2959 83.6269 51.8957 84.2271L76.2374 108.569C77.3173 109.649 77.4755 111.348 76.6139 112.609L65.9915 128.145C63.4045 131.927 63.8791 137.024 67.1193 140.265L74.8418 147.987C76.0827 149.228 78.0941 149.228 79.3356 147.987C80.5762 146.747 80.5762 144.735 79.3356 143.494L71.6131 135.771C70.5332 134.691 70.375 132.992 71.2369 131.732L81.8597 116.196C84.446 112.413 83.9714 107.316 80.7312 104.076L56.3895 79.7336C52.6731 76.0172 46.6258 76.0172 42.9088 79.7336C24.8221 97.8206 24.8221 127.25 42.9088 145.337L92.3363 194.764C101.38 203.808 113.259 208.33 125.138 208.33C137.017 208.329 148.896 203.808 157.939 194.764C161.656 191.048 161.656 185.001 157.94 181.284Z" fill="#A2C55D"/>
<path d="M72.1441 123.798L52.8836 104.537C51.6423 103.297 49.631 103.297 48.3898 104.537C47.1492 105.778 47.1492 107.79 48.3898 109.031L67.6507 128.292C68.2711 128.912 69.0838 129.222 69.8974 129.222C70.7104 129.222 71.5237 128.912 72.1441 128.292C73.3847 127.051 73.3847 125.039 72.1441 123.798Z" fill="#A2C55D"/>
<path d="M145.86 197.512L125.594 177.247C124.353 176.007 122.342 176.007 121.1 177.247C119.86 178.488 119.86 180.5 121.1 181.741L141.366 202.006C141.986 202.626 142.799 202.937 143.613 202.937C144.426 202.937 145.239 202.626 145.86 202.006C147.1 200.765 147.1 198.753 145.86 197.512Z" fill="#A2C55D"/>
</svg>
