<svg width="232" height="232" viewBox="0 0 232 232" fill="none" xmlns="http://www.w3.org/2000/svg">
<path d="M181.466 167.803H194.088C195.706 167.803 197.017 166.492 197.017 164.874V63.8776C197.017 62.2596 195.706 60.9486 194.088 60.9486H37.866C36.2484 60.9486 34.937 62.2596 34.937 63.8776V164.874C34.937 166.492 36.2484 167.803 37.866 167.803H167.758C169.376 167.803 170.687 166.492 170.687 164.874C170.687 163.256 169.376 161.945 167.758 161.945H40.795V66.8067H191.159V161.945H181.466C179.849 161.945 178.537 163.256 178.537 164.874C178.537 166.492 179.849 167.803 181.466 167.803Z" fill="#A2C55D"/>
<path d="M213.026 174.568H209.644V59.1445C209.644 53.1795 204.789 48.3267 198.822 48.3267H63.0167C61.3991 48.3267 60.0877 49.6377 60.0877 51.2557C60.0877 52.8737 61.3991 54.1847 63.0167 54.1847H198.822C201.559 54.1847 203.786 56.4096 203.786 59.1445V174.568H28.1691V59.1445C28.1691 56.4096 30.396 54.1847 33.1328 54.1847H49.3245C50.9421 54.1847 52.2535 52.8737 52.2535 51.2557C52.2535 49.6377 50.9421 48.3267 49.3245 48.3267H33.1328C27.1658 48.3267 22.3111 53.1795 22.3111 59.1445V174.568H18.929C17.3114 174.568 16 175.879 16 177.497V193.278C16 200.113 21.5608 205.674 28.3956 205.674H42.7713C44.3889 205.674 45.7003 204.363 45.7003 202.745C45.7003 201.127 44.3889 199.816 42.7713 199.816H28.3956C24.791 199.816 21.858 196.883 21.858 193.278V180.426H94.0983L95.671 185.458C97.0902 189.999 101.24 193.05 105.998 193.05H125.956C130.714 193.05 134.864 189.999 136.283 185.458L137.856 180.426H210.097V193.278C210.097 196.883 207.164 199.816 203.559 199.816H56.4791C54.8615 199.816 53.5501 201.127 53.5501 202.745C53.5501 204.363 54.8615 205.674 56.4791 205.674H203.559C210.394 205.674 215.955 200.113 215.955 193.278V177.497C215.955 175.879 214.643 174.568 213.026 174.568ZM130.692 183.711C130.041 185.793 128.138 187.192 125.957 187.192H105.998C103.816 187.192 101.913 185.793 101.263 183.711L100.236 180.426H131.719L130.692 183.711Z" fill="#A2C55D"/>
<path d="M89.5454 118.883C90.9416 118.883 92.1437 117.898 92.4174 116.528L95.9682 98.7754C96.14 97.9151 95.9174 97.0227 95.3613 96.3439C94.8048 95.6656 93.9737 95.2719 93.0962 95.2719H70.6091C68.9915 95.2719 67.6801 96.5829 67.6801 98.2009C67.6801 99.8189 68.9915 101.13 70.6091 101.13H89.5232L87.144 113.025H64.3707L60.4712 91.7551C60.2161 90.364 59.0043 89.3545 57.5902 89.3545H50.4894C48.8718 89.3545 47.5604 90.6655 47.5604 92.2835C47.5604 93.9015 48.8718 95.2125 50.4894 95.2125H55.1497L59.0012 116.22V128.578C59.0012 130.196 60.3126 131.507 61.9302 131.507H62.0673C61.981 131.832 61.9302 132.171 61.9302 132.523C61.9302 134.702 63.6966 136.468 65.8754 136.468C67.6629 136.468 69.1704 135.279 69.6554 133.649C69.7706 133.279 69.8327 132.884 69.8327 132.476C69.8327 132.141 69.7866 131.818 69.7081 131.507H76.2695C76.2547 131.566 76.2367 131.624 76.2246 131.684C76.1657 131.955 76.1329 132.235 76.1329 132.524C76.1329 134.702 77.8992 136.469 80.078 136.469C81.9866 136.469 83.5784 135.113 83.944 133.312C84.0022 133.043 84.0346 132.763 84.0346 132.476C84.0346 132.142 83.9885 131.818 83.91 131.508H84.8121C86.4297 131.508 87.7412 130.197 87.7412 128.579C87.7412 126.961 86.4297 125.65 84.8121 125.65H64.8596V118.884H89.5454V118.883Z" fill="#A2C55D"/>
<path d="M129.163 82.8151C129.163 81.1971 127.852 79.8861 126.234 79.8861H113.61C111.992 79.8861 110.681 81.1971 110.681 82.8151V95.4392C110.681 97.0572 111.992 98.3683 113.61 98.3683H126.234C127.852 98.3683 129.163 97.0572 129.163 95.4392V82.8151ZM123.305 92.5106H116.539V85.7445H123.305V92.5106Z" fill="#A2C55D"/>
<path d="M138.859 98.3684H165.685C167.302 98.3684 168.614 97.0574 168.614 95.4394C168.614 93.8214 167.302 92.5104 165.685 92.5104H138.859C137.241 92.5104 135.93 93.8214 135.93 95.4394C135.93 97.0574 137.241 98.3684 138.859 98.3684Z" fill="#A2C55D"/>
<path d="M138.859 85.7442H181.465C183.083 85.7442 184.394 84.4331 184.394 82.8151C184.394 81.1971 183.083 79.8861 181.465 79.8861H138.859C137.241 79.8861 135.93 81.1971 135.93 82.8151C135.93 84.4331 137.241 85.7442 138.859 85.7442Z" fill="#A2C55D"/>
<path d="M129.163 108.064C129.163 106.446 127.852 105.135 126.234 105.135H113.61C111.992 105.135 110.681 106.446 110.681 108.064V120.688C110.681 122.306 111.992 123.617 113.61 123.617H126.234C127.852 123.617 129.163 122.306 129.163 120.688V108.064ZM123.305 117.759H116.539V110.993H123.305V117.759Z" fill="#A2C55D"/>
<path d="M138.859 123.617H165.685C167.302 123.617 168.614 122.306 168.614 120.688C168.614 119.07 167.302 117.759 165.685 117.759H138.859C137.241 117.759 135.93 119.07 135.93 120.688C135.93 122.306 137.241 123.617 138.859 123.617Z" fill="#A2C55D"/>
<path d="M138.859 110.993H181.465C183.083 110.993 184.394 109.682 184.394 108.064C184.394 106.446 183.083 105.135 181.465 105.135H138.859C137.241 105.135 135.93 106.446 135.93 108.064C135.93 109.682 137.241 110.993 138.859 110.993Z" fill="#A2C55D"/>
<path d="M126.234 130.383H113.61C111.992 130.383 110.681 131.694 110.681 133.312V145.936C110.681 147.554 111.992 148.865 113.61 148.865H126.234C127.852 148.865 129.163 147.554 129.163 145.936V133.312C129.163 131.694 127.852 130.383 126.234 130.383ZM123.305 143.007H116.539V136.241H123.305V143.007Z" fill="#A2C55D"/>
<path d="M138.859 143.007C137.241 143.007 135.93 144.318 135.93 145.936C135.93 147.554 137.241 148.865 138.859 148.865H165.685C167.302 148.865 168.614 147.554 168.614 145.936C168.614 144.318 167.302 143.007 165.685 143.007H138.859Z" fill="#A2C55D"/>
<path d="M184.394 133.312C184.394 131.694 183.083 130.383 181.465 130.383H138.859C137.241 130.383 135.93 131.694 135.93 133.312C135.93 134.93 137.241 136.241 138.859 136.241H181.465C183.083 136.241 184.394 134.93 184.394 133.312Z" fill="#A2C55D"/>
</svg>
