<svg width="211" height="211" viewBox="0 0 211 211" fill="none" xmlns="http://www.w3.org/2000/svg">
<path d="M41.1611 96.9062L65.2578 102.261C65.4479 102.301 65.6434 102.323 65.8388 102.323C65.9486 102.323 66.0611 102.315 66.1708 102.301L86.1551 99.8032C88.0346 102.904 91.4082 105 95.2904 105C101.197 105 106 100.197 106 94.2904C106 90.4483 103.952 87.1015 100.908 85.2112L103.272 73.3958C103.355 72.9781 103.336 72.547 103.221 72.1347L103.036 71.4841C103.178 71.5323 103.328 71.5644 103.47 71.618L105.296 66.5818C104.005 66.1159 102.672 65.7732 101.325 65.492L97.8688 53.3928C97.5368 52.2442 96.4846 51.4517 95.2904 51.4517C94.0963 51.4517 93.0441 52.2442 92.7148 53.3955L87.3599 72.1374C87.2448 72.547 87.2261 72.9781 87.3091 73.3985L89.6732 85.2139C88.2328 86.1082 87.0333 87.3291 86.1551 88.7776L72.3209 87.0479C72.5136 86.4375 72.7118 85.8297 72.9527 85.238L67.9888 83.2246C67.5738 84.25 67.2311 85.3049 66.9312 86.3732L66.1681 86.2769C65.8602 86.2394 65.555 86.2528 65.2551 86.3197L41.1584 91.6745C39.9348 91.9503 39.0646 93.0347 39.0646 94.2904C39.0646 95.5461 39.9348 96.6304 41.1611 96.9062ZM95.2904 99.6452C92.3372 99.6452 89.9356 97.2436 89.9356 94.2904C89.9356 91.3372 92.3372 88.9355 95.2904 88.9355C98.2436 88.9355 100.645 91.3372 100.645 94.2904C100.645 97.2436 98.2436 99.6452 95.2904 99.6452ZM92.688 72.9835L95.2904 63.8749L97.8929 72.9835L95.7643 83.6289C95.6037 83.6208 95.4511 83.5807 95.2904 83.5807C95.1298 83.5807 94.9772 83.6208 94.8165 83.6289L92.688 72.9835ZM65.9673 91.6504L84.6129 93.9798C84.6102 94.0869 84.5808 94.1833 84.5808 94.2904C84.5808 94.3975 84.6102 94.4939 84.6129 94.6009L65.9673 96.9303L54.0823 94.2904L65.9673 91.6504Z" fill="#A2C55D"/>
<path d="M119.746 158.549H106.359V153.194H117.069C118.55 153.194 119.746 151.997 119.746 150.516V139.807C119.746 138.326 118.55 137.129 117.069 137.129H101.005V142.484H114.392V147.839H103.682C102.201 147.839 101.005 149.036 101.005 150.516V161.226C101.005 162.707 102.201 163.903 103.682 163.903H119.746V158.549Z" fill="#A2C55D"/>
<path d="M125.101 153.194H135.811V163.903H141.165V153.194H143.843V147.839H141.165V137.129H135.811V147.839H127.778V137.129H122.423V150.516C122.423 151.997 123.62 153.194 125.101 153.194Z" fill="#A2C55D"/>
<path d="M183.645 153.194H177.632L172.834 136.395C172.504 135.244 171.452 134.452 170.258 134.452H156.378C155.27 131.343 152.325 129.097 148.839 129.097H95.2903C90.8619 129.097 87.2581 132.701 87.2581 137.129V149.884C75.6996 148.246 65.3702 143.26 57.2844 135.879L65.0569 128.106L61.271 124.32L53.5172 132.074C44.4916 122.09 39.0645 108.839 39.0645 94.2903C39.0645 79.7519 44.6603 66.5255 53.7475 56.536L61.2657 64.0542L65.0515 60.2684L57.5334 52.7502C66.9043 44.2253 79.1321 38.841 92.6102 38.2011V46.0968H97.9651V38.1957C111.395 38.8329 123.588 44.1717 132.946 52.6404L125.524 60.0622L129.31 63.8481L136.742 56.4156C145.326 65.8053 150.812 78.0732 151.449 91.6129H143.484C142.469 91.6129 141.543 92.1859 141.088 93.0935C140.635 94.0012 140.731 95.0855 141.342 95.8968L157.406 117.316C158.416 118.666 160.681 118.666 161.69 117.316L177.755 95.8968C178.365 95.0855 178.462 94.0012 178.009 93.0935C177.554 92.1859 176.628 91.6129 175.613 91.6129H167.53C166.119 52.9858 134.257 22 95.2903 22C55.4289 22 23 54.4289 23 94.2903C23 131.03 51.0326 162.099 87.2581 166.12V169.258C87.2581 170.739 88.4549 171.935 89.9355 171.935V174.613C89.9355 177.566 92.3371 179.968 95.2903 179.968H98.3479C99.5447 184.576 103.7 188 108.677 188C113.655 188 117.81 184.576 119.007 179.968H143.864C145.061 184.576 149.216 188 154.194 188C159.171 188 163.326 184.576 164.523 179.968H172.935C172.935 181.448 174.132 182.645 175.613 182.645H180.968C185.396 182.645 189 179.041 189 174.613V169.258V158.548C189 155.595 186.598 153.194 183.645 153.194ZM183.645 158.548V166.581H156.871V139.806H159.548V155.871C159.548 157.352 160.745 158.548 162.226 158.548H175.613H183.645ZM117.898 171.935H144.973C144.488 172.765 144.11 173.66 143.864 174.613H119.007C118.761 173.66 118.383 172.765 117.898 171.935ZM172.063 153.194H164.903V139.806H168.239L172.063 153.194ZM92.6129 137.129C92.6129 135.651 93.8124 134.452 95.2903 134.452H148.839C150.317 134.452 151.516 135.651 151.516 137.129V166.581H92.6129V137.129ZM28.3548 94.2903C28.3548 57.3821 58.3821 27.3548 95.2903 27.3548C132.199 27.3548 162.226 57.3821 162.226 94.2903C162.226 95.7709 163.423 96.9677 164.903 96.9677H170.258L159.548 111.246L148.839 96.9677H154.194C155.674 96.9677 156.871 95.7709 156.871 94.2903C156.871 60.3326 129.248 32.7097 95.2903 32.7097C61.3326 32.7097 33.7097 60.3326 33.7097 94.2903C33.7097 125.547 56.5722 151.311 87.2581 155.285V160.741C54.0018 156.749 28.3548 128.109 28.3548 94.2903ZM95.2903 171.935H99.4564C98.9718 172.765 98.5943 173.66 98.3479 174.613H95.2903V171.935ZM108.677 182.645C105.724 182.645 103.323 180.244 103.323 177.29C103.323 174.337 105.724 171.935 108.677 171.935C111.631 171.935 114.032 174.337 114.032 177.29C114.032 180.244 111.631 182.645 108.677 182.645ZM154.194 182.645C151.24 182.645 148.839 180.244 148.839 177.29C148.839 174.337 151.24 171.935 154.194 171.935C157.147 171.935 159.548 174.337 159.548 177.29C159.548 180.244 157.147 182.645 154.194 182.645ZM164.523 174.613C164.277 173.66 163.899 172.765 163.415 171.935H172.935V174.613H164.523ZM180.968 177.29H178.29V171.935H183.645V174.613C183.645 176.091 182.446 177.29 180.968 177.29Z" fill="#A2C55D"/>
<path d="M75.1936 80.9862C76.0798 79.6529 77.1053 78.3972 78.2432 77.2566L74.452 73.4761C73.0624 74.8683 71.8147 76.3971 70.733 78.025L75.1936 80.9862Z" fill="#A2C55D"/>
<path d="M81.9645 74.2098C83.3005 73.3236 84.7276 72.5686 86.2082 71.9661L84.1948 67.0022C82.3795 67.7385 80.6312 68.6649 79.0006 69.7519L81.9645 74.2098Z" fill="#A2C55D"/>
<path d="M124.008 87.728L118.79 88.9141C119.144 90.4697 119.342 92.0762 119.382 93.688L124.737 93.5568C124.686 91.5889 124.442 89.6263 124.008 87.728Z" fill="#A2C55D"/>
<path d="M81.614 114.135C80.2967 113.222 79.0624 112.175 77.9459 111.019L74.0931 114.738C75.4559 116.149 76.9633 117.429 78.5725 118.54L81.614 114.135Z" fill="#A2C55D"/>
<path d="M83.7211 121.383C85.5283 122.154 87.4186 122.746 89.341 123.139L90.4173 117.894C88.8457 117.573 87.3035 117.088 85.8282 116.457L83.7211 121.383Z" fill="#A2C55D"/>
<path d="M95.191 118.387L95.2847 123.742H95.3303C97.2446 123.742 99.1643 123.555 101.033 123.183L99.9916 117.932C98.4655 118.232 96.8966 118.387 95.2285 118.387C95.2178 118.387 95.2044 118.387 95.191 118.387Z" fill="#A2C55D"/>
<path d="M67.7985 104.871C68.4973 106.692 69.3889 108.456 70.4492 110.119L74.9633 107.238C74.0985 105.881 73.3676 104.438 72.7973 102.952L67.7985 104.871Z" fill="#A2C55D"/>
<path d="M124.295 99.4203L119.023 98.4885C118.745 100.068 118.303 101.626 117.719 103.118L122.702 105.078C123.419 103.254 123.955 101.351 124.295 99.4203Z" fill="#A2C55D"/>
<path d="M122.129 82.1511C121.318 80.3679 120.327 78.657 119.178 77.0693L114.838 80.2073C115.778 81.5031 116.587 82.9034 117.248 84.3653L122.129 82.1511Z" fill="#A2C55D"/>
<path d="M110.594 69.1226L107.813 73.6983C109.183 74.5336 110.471 75.5055 111.647 76.5952L115.285 72.6675C113.85 71.3368 112.273 70.1427 110.594 69.1226Z" fill="#A2C55D"/>
<path d="M104.592 116.524L106.656 121.466C108.461 120.711 110.201 119.766 111.829 118.663L108.817 114.234C107.489 115.137 106.064 115.905 104.592 116.524Z" fill="#A2C55D"/>
<path d="M120.008 110.307L115.516 107.388C114.645 108.73 113.633 109.993 112.506 111.145L116.335 114.888C117.711 113.485 118.945 111.945 120.008 110.307Z" fill="#A2C55D"/>
</svg>
