<svg width="211" height="211" viewBox="0 0 211 211" fill="none" xmlns="http://www.w3.org/2000/svg">
<path d="M185.424 58.5254H97.5844C97.8811 56.7735 98.0382 54.9748 98.0382 53.1398C98.0382 35.4178 83.6204 21 65.8983 21C48.1763 21 33.7585 35.4178 33.7585 53.1398C33.7585 69.6878 46.3299 83.3534 62.4238 85.0913V130.026H26.49C24.571 130.026 23.0155 131.581 23.0155 133.5C23.0155 135.419 24.571 136.975 26.49 136.975H62.4238V181.525C62.4238 183.444 63.9793 185 65.8983 185H113.153C115.071 185 116.627 183.444 116.627 181.525C116.627 179.606 115.071 178.051 113.153 178.051H69.3729V85.0913C81.2184 83.812 91.1547 76.0713 95.5754 65.4746H106.898V97.2089C106.898 98.6154 107.746 99.8833 109.046 100.42C110.347 100.957 111.842 100.658 112.834 99.6609L125.661 86.7859L138.488 99.6613C139.153 100.329 140.044 100.684 140.95 100.684C141.396 100.684 141.847 100.598 142.276 100.42C143.576 99.8837 144.424 98.6158 144.424 97.2093V65.4746H181.949V178.051H144.424C142.505 178.051 140.949 179.606 140.949 181.525C140.949 183.444 142.505 185 144.424 185H185.424C187.342 185 188.898 183.444 188.898 181.525V62C188.898 60.081 187.342 58.5254 185.424 58.5254ZM65.8983 78.3305C52.008 78.3305 40.7077 67.0301 40.7077 53.1398C40.7077 39.2495 52.008 27.9492 65.8983 27.9492C79.7887 27.9492 91.089 39.2495 91.089 53.1398C91.089 67.0301 79.7887 78.3305 65.8983 78.3305ZM137.475 88.798L128.122 79.4104C127.471 78.7558 126.585 78.3882 125.661 78.3882C124.737 78.3882 123.851 78.7561 123.2 79.4104L113.847 88.798V65.4746H137.475V88.798Z" fill="#A2C55D"/>
<path d="M165.42 155.738C165.42 153.819 163.864 152.263 161.946 152.263H136.144C134.226 152.263 132.67 153.819 132.67 155.738C132.67 157.657 134.226 159.212 136.144 159.212H161.946C163.864 159.212 165.42 157.657 165.42 155.738Z" fill="#A2C55D"/>
<path d="M161.946 142.534C163.864 142.534 165.42 140.978 165.42 139.059V123.771C165.42 121.852 163.864 120.297 161.946 120.297H125.81C123.892 120.297 122.336 121.852 122.336 123.771V139.059C122.336 140.978 123.892 142.534 125.81 142.534H161.946ZM129.285 127.246H158.471V135.585H129.285V127.246Z" fill="#A2C55D"/>
<path d="M14.4746 114.737H20.4825C22.4015 114.737 23.957 113.182 23.957 111.263C23.957 109.344 22.4015 107.788 20.4825 107.788H14.4746C12.5556 107.788 11 109.344 11 111.263C11 113.182 12.5556 114.737 14.4746 114.737Z" fill="#A2C55D"/>
<path d="M48.178 114.737C50.097 114.737 51.6525 113.182 51.6525 111.263C51.6525 109.344 50.097 107.788 48.178 107.788H37.83C35.911 107.788 34.3554 109.344 34.3554 111.263C34.3554 113.182 35.911 114.737 37.83 114.737H48.178Z" fill="#A2C55D"/>
<path d="M48.178 152.263H14.4746C12.5556 152.263 11 153.818 11 155.737C11 157.656 12.5556 159.212 14.4746 159.212H48.178C50.097 159.212 51.6525 157.656 51.6525 155.737C51.6525 153.818 50.097 152.263 48.178 152.263Z" fill="#A2C55D"/>
<path d="M128.788 178.051C127.874 178.051 126.978 178.423 126.332 179.069C125.685 179.715 125.314 180.612 125.314 181.525C125.314 182.439 125.685 183.336 126.332 183.982C126.978 184.628 127.874 185 128.788 185C129.702 185 130.598 184.628 131.244 183.982C131.891 183.336 132.263 182.439 132.263 181.525C132.263 180.612 131.891 179.715 131.244 179.069C130.598 178.423 129.702 178.051 128.788 178.051Z" fill="#A2C55D"/>
<path d="M72.6706 45.6009L65.4856 52.786L63.0638 50.3638C61.707 49.007 59.5069 49.007 58.1497 50.3638C56.7929 51.7207 56.7929 53.9208 58.1497 55.2779L63.0287 60.1569C63.7073 60.8355 64.5964 61.1746 65.4856 61.1746C66.3747 61.1746 67.2642 60.8355 67.9424 60.1569L77.5844 50.515C78.9412 49.1582 78.9412 46.9581 77.5844 45.6009C76.2279 44.2437 74.0275 44.2437 72.6706 45.6009Z" fill="#A2C55D"/>
</svg>
