<svg width="211" height="211" viewBox="0 0 211 211" fill="none" xmlns="http://www.w3.org/2000/svg">
<path d="M94.0638 63.9522L94.2428 64.1266L94.0637 63.9522C92.2491 65.8154 91.25 68.2928 91.25 70.9256C91.25 73.5584 92.2491 76.0355 94.0634 77.8983L101.967 86.0156C96.361 86.2616 90.8037 87.0896 85.4003 88.4983C79.0558 90.1522 72.9105 92.5982 67.1319 95.7753C65.6472 96.59 65.0913 98.4844 65.8804 100.002L65.8805 100.002C66.4118 101.022 67.4446 101.654 68.5738 101.654C69.0747 101.654 69.5714 101.529 70.0154 101.287L70.016 101.286C75.3627 98.3474 81.0445 96.0853 86.908 94.5571C92.7988 93.0211 98.8992 92.2291 105.04 92.1878C105.187 92.2109 105.34 92.2268 105.501 92.2268C105.665 92.2268 105.822 92.2106 105.974 92.1856C115.118 92.2467 124.042 93.9649 132.505 97.3002C139.508 100.063 146.06 103.885 151.988 108.661C157.857 113.396 163.003 118.98 167.279 125.255C171.615 131.615 174.979 138.574 177.275 145.94L177.513 145.865L177.275 145.94C179.342 152.568 180.519 159.451 180.79 166.449H30.2154C30.4178 161.222 31.1228 156.038 32.3333 151L32.3333 151C33.7402 145.129 35.828 139.427 38.5371 134.053L38.5372 134.053C41.198 128.771 44.4616 123.799 48.239 119.266C51.9976 114.757 56.2658 110.686 60.9211 107.17L60.9211 107.17C62.2738 106.148 62.5634 104.194 61.5716 102.808C61.0023 102.007 60.0796 101.529 59.1131 101.529C58.4578 101.529 57.8296 101.739 57.3042 102.14C52.2752 105.936 47.6657 110.332 43.6027 115.204L43.7947 115.364L43.6026 115.204C39.5211 120.099 35.9899 125.479 33.1145 131.186C30.186 136.997 27.9318 143.161 26.4082 149.506L26.4082 149.506C25.0834 155.032 24.3159 160.718 24.11 166.448H19.632C17.9412 166.448 16.582 167.854 16.582 169.574C16.582 177.634 22.9682 184.202 30.8322 184.202H180.167C188.031 184.202 194.418 177.634 194.418 169.574C194.418 167.854 193.058 166.449 191.368 166.449H186.892C186.618 158.802 185.341 151.275 183.083 144.035C180.601 136.074 176.968 128.556 172.284 121.68C167.664 114.896 162.102 108.863 155.755 103.748C149.352 98.5825 142.266 94.452 134.697 91.4671C126.481 88.2257 117.865 86.4004 109.035 86.0151L116.938 77.898C120.682 74.0524 120.682 67.7984 116.938 63.9526L116.759 64.127L116.938 63.9525C115.124 62.0901 112.709 61.0623 110.14 61.0623C108.492 61.0623 106.906 61.4858 105.501 62.2821C104.096 61.4858 102.51 61.0623 100.861 61.0623C98.2933 61.0623 95.8783 62.0898 94.0638 63.9522ZM105.501 80.7942L98.3812 73.4816L98.381 73.4815C97.7159 72.7997 97.3496 71.8927 97.3496 70.9249C97.3496 69.9572 97.7162 69.0504 98.3805 68.3682C99.0445 67.6866 99.9247 67.313 100.861 67.313C101.798 67.313 102.678 67.6869 103.343 68.3686C104.535 69.5915 106.468 69.5916 107.659 68.3682C108.324 67.6863 109.204 67.313 110.14 67.313C111.077 67.313 111.957 67.6863 112.62 68.3675C113.992 69.7768 113.992 72.073 112.62 73.4824L105.501 80.7942ZM180.167 177.951H30.8322C27.417 177.951 24.4815 175.778 23.2724 172.7H27.0718L27.0793 172.7C27.0842 172.7 27.0909 172.701 27.0988 172.701C27.1067 172.701 27.1134 172.7 27.1183 172.7L27.1258 172.7H183.874L183.881 172.7C183.886 172.7 183.893 172.701 183.901 172.701C183.904 172.701 183.906 172.701 183.909 172.701C183.913 172.701 183.917 172.7 183.92 172.7L183.928 172.7H187.727C186.518 175.778 183.583 177.951 180.167 177.951Z" fill="#A2C55D" stroke="#A2C55D" stroke-width="0.5"/>
<path d="M115.287 107.779C125.89 114.001 138.411 129.557 140.027 152.372" stroke="#A2C55D" stroke-width="6.5" stroke-linecap="round" stroke-linejoin="round"/>
<path d="M32.6642 44.3785L32.6643 44.3786C34.0081 45.414 34.2797 47.3654 33.2781 48.7437M32.6642 44.3785L33.0756 48.5972M32.6642 44.3785C31.3143 43.3391 29.3995 43.6217 28.3897 45.0044L28.3897 45.0044C28.2551 45.1889 25.2237 49.383 23.6887 55.1623L23.6887 55.1624C21.5568 63.191 23.2746 70.3802 28.6726 75.9242L28.6726 75.9242C33.2513 80.6262 33.2911 86.1579 32.1229 90.6136C30.9541 95.0717 28.5821 98.4172 28.3898 98.6832C27.3832 100.062 27.6536 102.018 28.9995 103.054L28.9995 103.054C29.5477 103.476 30.1912 103.682 30.8299 103.681M32.6642 44.3785L29.152 102.856C29.6556 103.244 30.2451 103.432 30.8298 103.431M33.2781 48.7437C33.278 48.7439 33.2779 48.744 33.2778 48.7442L33.0756 48.5972M33.2781 48.7437C33.2781 48.7437 33.2782 48.7437 33.2782 48.7437L33.0756 48.5972M33.2781 48.7437C33.0868 49.0084 30.7114 52.3565 29.5413 56.8183C28.3726 61.2744 28.4122 66.8061 32.9908 71.5082C38.3891 77.0523 40.1069 84.2415 37.975 92.2701C36.4404 98.0498 33.4087 102.244 33.2741 102.428L33.274 102.428C32.6759 103.248 31.7592 103.681 30.8299 103.681M33.0756 48.5972C32.68 49.1443 23.4894 62.1088 32.8117 71.6826C38.1431 77.1581 39.8448 84.2544 37.7334 92.2059C36.2105 97.9417 33.1996 102.106 33.0721 102.281C32.5221 103.034 31.6811 103.431 30.8298 103.431M30.8299 103.681L30.8298 103.431M30.8299 103.681C30.8299 103.681 30.8298 103.681 30.8298 103.681V103.431" fill="#A2C55D" stroke="#A2C55D" stroke-width="0.5"/>
<path d="M60.746 52.8039L60.746 52.8039C61.3779 50.724 62.7355 49.2165 62.8576 49.0835C64.0455 47.8631 64.0455 45.888 62.8576 44.6676L62.8575 44.6675C61.6659 43.4442 59.731 43.4442 58.5394 44.6675L58.5394 44.6676C58.2894 44.9244 56.1317 47.2077 55.0043 50.6816C53.4164 55.5743 54.6829 60.4589 58.5394 64.4199L58.5394 64.4199C59.6571 65.5674 60.378 66.731 60.7238 67.927C61.069 69.1209 61.045 70.3627 60.6488 71.6766C59.9965 73.8393 58.5769 75.3977 58.5139 75.4662C57.3462 76.695 57.3623 78.6606 58.5537 79.8687L58.7317 79.6932L58.5537 79.8687C59.1478 80.4711 59.9231 80.7723 60.6987 80.7723C61.4874 80.7723 62.2756 80.4602 62.8715 79.8405L62.8715 79.8404C63.1207 79.5811 65.2713 77.2766 66.3953 73.7839C67.9792 68.8625 66.7127 63.9627 62.8576 60.0039L62.6824 60.1745L62.8576 60.0039C61.7412 58.8575 61.0208 57.699 60.6747 56.5122C60.3293 55.3277 60.3521 54.0996 60.746 52.8039Z" fill="#A2C55D" stroke="#A2C55D" stroke-width="0.5"/>
<path d="M187.31 55.1619C185.776 49.3843 182.746 45.1907 182.609 45.0039C181.601 43.6229 179.692 43.341 178.342 44.3767C176.996 45.4086 176.722 47.3626 177.721 48.7433C177.913 49.008 180.288 52.3561 181.458 56.8178C182.627 61.2739 182.587 66.8056 178.008 71.5077L178.008 71.5078C172.611 77.0518 170.893 84.2414 173.025 92.27C174.559 98.0477 177.589 102.241 177.726 102.428C178.323 103.247 179.238 103.679 180.166 103.679C180.803 103.679 181.445 103.476 181.993 103.055C183.339 102.023 183.613 100.069 182.614 98.6886C182.423 98.4245 180.047 95.0761 178.877 90.6138C177.708 86.1576 177.748 80.6259 182.327 75.9237L182.148 75.7493L182.327 75.9237C187.725 70.3797 189.443 63.1905 187.31 55.1619ZM187.31 55.1619L187.069 55.226M187.31 55.1619C187.31 55.1619 187.31 55.1619 187.31 55.1619L187.069 55.226M187.069 55.226C185.546 49.4906 182.535 45.3256 182.408 45.1513L187.069 55.226Z" fill="#A2C55D" stroke="#A2C55D" stroke-width="0.5"/>
<path d="M150.35 71.6766L150.35 71.6766C151.016 73.883 152.479 75.4601 152.487 75.4682L152.304 75.6385M150.35 71.6766L150.253 52.804C150.646 54.0997 150.669 55.3278 150.324 56.5122C149.978 57.699 149.258 58.8576 148.141 60.0039L148.319 60.1772L148.141 60.004C144.287 63.9631 143.02 68.8625 144.604 73.7839C145.728 77.2767 147.879 79.5812 148.127 79.8404L148.127 79.8405C148.722 80.4588 149.506 80.7692 150.291 80.7692C151.062 80.7692 151.833 80.4706 152.426 79.8755C153.625 78.6751 153.647 76.7035 152.486 75.4674L152.304 75.6385M150.35 71.6766C149.954 70.3627 149.93 69.1209 150.275 67.9271C150.621 66.731 151.341 65.5674 152.459 64.4199C156.316 60.4594 157.582 55.5744 155.994 50.6817C154.867 47.2077 152.709 44.9248 152.459 44.6677L152.459 44.6676M150.35 71.6766L152.459 44.6676M152.304 75.6385C153.373 76.7771 153.352 78.5948 152.25 79.6989L155.756 50.7588C157.313 55.5549 156.078 60.3448 152.28 64.2455C150.003 66.5839 149.293 69.0383 150.111 71.7488C150.793 74.0111 152.289 75.6225 152.304 75.6385ZM152.459 44.6676C151.272 43.4485 149.354 43.4498 148.16 44.6608C146.969 45.8689 146.96 47.8405 148.127 49.0693L148.128 49.0694M152.459 44.6676L148.128 49.0694M148.128 49.0694C148.127 49.0689 148.219 49.1663 148.367 49.3473M148.128 49.0694L148.367 49.3473M148.367 49.3473C148.516 49.528 148.72 49.7914 148.944 50.1229M148.367 49.3473L148.944 50.1229M148.944 50.1229C149.395 50.7871 149.923 51.7188 150.253 52.8039L148.944 50.1229Z" fill="#A2C55D" stroke="#A2C55D" stroke-width="0.5"/>
</svg>
