<svg width="232" height="232" viewBox="0 0 232 232" fill="none" xmlns="http://www.w3.org/2000/svg">
<path d="M179.708 114.472C179.708 110.868 178.111 107.633 175.591 105.429C178.111 103.225 179.708 99.9897 179.708 96.3865C179.708 89.7619 174.318 84.372 167.693 84.372H165.113C163.686 84.372 162.328 84.6763 161.099 85.2199V62.2994C161.1 56.0267 155.996 50.9233 149.723 50.9233H99.6821C93.4094 50.9233 88.306 56.0267 88.306 62.2994V86.1096C85.2956 82.7673 81.2805 80.4211 76.5748 79.4927C72.7279 78.7385 69.0551 81.7979 69.0551 85.7045V122.161C69.0551 126.756 68.2376 131.237 66.6248 135.48C64.0798 142.178 61.0602 152.315 60.8822 163.04L52.5848 174.227C52.2053 174.739 52 175.36 52 175.997V200.105C52 201.746 53.3307 203.076 54.9717 203.076H101.619C102.496 203.076 103.328 202.689 103.892 202.019L114.082 189.918C118.936 189.36 136.255 186.707 145.789 176.55H149.723C155.996 176.55 161.1 171.447 161.1 165.174V161.808C162.328 162.351 163.686 162.656 165.113 162.656H167.694C174.318 162.656 179.708 157.266 179.708 150.641C179.708 147.038 178.111 143.803 175.591 141.599C178.111 139.395 179.708 136.159 179.708 132.556C179.708 128.953 178.111 125.717 175.591 123.514C178.111 121.31 179.708 118.075 179.708 114.472ZM165.113 90.3158H167.694C171.041 90.3158 173.765 93.0391 173.765 96.3867C173.765 99.7341 171.041 102.457 167.694 102.457H165.113C162.9 102.457 161.1 100.657 161.1 98.4435V94.33C161.1 92.1164 162.9 90.3158 165.113 90.3158ZM130.298 56.8668V57.5239C130.298 60.594 127.8 63.0917 124.73 63.0917C121.66 63.0917 119.162 60.594 119.162 57.5239V56.8668H130.298ZM155.156 165.174C155.156 168.17 152.719 170.607 149.723 170.607H99.6821C96.6866 170.607 94.2495 168.17 94.2495 165.174V149.535C94.2495 147.894 92.9187 146.563 91.2777 146.563C89.6367 146.563 88.306 147.894 88.306 149.535V165.174V165.175C88.306 171.447 93.4094 176.551 99.6818 176.551H136.47C126.509 182.908 112.521 184.106 112.352 184.12C111.559 184.182 110.824 184.56 110.312 185.168L100.237 197.133H57.9438V176.98L66.2328 165.804C66.6123 165.292 66.8177 164.671 66.8177 164.034C66.8177 153.845 69.7341 144.031 72.1811 137.592C74.0509 132.672 74.9989 127.48 74.9989 122.161V85.7045C74.9989 85.4823 75.2006 85.2805 75.428 85.3245C83.1307 86.8439 88.306 93.7312 88.306 102.462V123.385C88.306 125.027 89.6367 126.357 91.2777 126.357C92.9187 126.357 94.2495 125.027 94.2495 123.385V102.462V62.2994C94.2495 59.3039 96.6866 56.8668 99.6821 56.8668H113.219V57.5239C113.219 63.8712 118.383 69.0352 124.73 69.0352C131.077 69.0352 136.241 63.8712 136.241 57.5239V56.8668H149.723C152.719 56.8668 155.156 59.3039 155.156 62.2994V165.174H155.156ZM173.764 150.642C173.764 153.989 171.041 156.713 167.693 156.713H165.113C162.9 156.713 161.099 154.912 161.099 152.699V148.585C161.099 146.372 162.9 144.571 165.113 144.571H167.693C171.041 144.571 173.764 147.294 173.764 150.642ZM173.764 132.557C173.764 135.904 171.041 138.627 167.693 138.627H165.113C162.9 138.627 161.099 136.826 161.099 134.613V130.5C161.099 128.287 162.9 126.486 165.113 126.486H167.693C171.041 126.486 173.764 129.209 173.764 132.557ZM165.113 120.543C162.9 120.543 161.1 118.742 161.1 116.529V112.415C161.1 110.202 162.9 108.401 165.113 108.401H167.694C171.041 108.401 173.765 111.124 173.765 114.472C173.765 117.82 171.041 120.543 167.694 120.543H165.113V120.543Z" fill="#A2C55D"/>
<path d="M131.785 136.078H117.589C111.923 136.078 107.313 140.688 107.313 146.354C107.313 152.021 111.923 156.63 117.589 156.63H131.785C137.451 156.63 142.061 152.021 142.061 146.354C142.061 140.688 137.451 136.078 131.785 136.078ZM131.785 150.687H117.589C115.2 150.687 113.257 148.743 113.257 146.354C113.257 143.965 115.2 142.022 117.589 142.022H131.785C134.174 142.022 136.117 143.965 136.117 146.354C136.117 148.743 134.174 150.687 131.785 150.687Z" fill="#A2C55D"/>
<path d="M145.184 91.7565C145.024 90.245 143.748 89.0982 142.229 89.0982H134.437V86.9018C134.437 81.5494 130.082 77.1949 124.73 77.1949C119.377 77.1949 115.023 81.5494 115.023 86.9018V89.0982H107.145C105.625 89.0982 104.35 90.245 104.19 91.7565L101.218 119.776C101.129 120.614 101.4 121.45 101.964 122.077C102.527 122.704 103.33 123.061 104.173 123.061H145.201C146.044 123.061 146.846 122.704 147.41 122.077C147.974 121.451 148.245 120.614 148.156 119.776L145.184 91.7565ZM120.967 86.9018C120.967 84.8267 122.655 83.1384 124.73 83.1384C126.805 83.1384 128.493 84.8267 128.493 86.9018V89.0982H120.967V86.9018ZM107.477 117.118L109.818 95.0414H115.023V97.9962C115.023 99.6375 116.354 100.968 117.995 100.968C119.636 100.968 120.967 99.6375 120.967 97.9962V95.0414H128.493V97.9962C128.493 99.6375 129.824 100.968 131.465 100.968C133.106 100.968 134.437 99.6375 134.437 97.9962V95.0414H139.556L141.897 117.118H107.477Z" fill="#A2C55D"/>
<path d="M94.0505 135.149C93.4368 133.651 91.6612 132.922 90.1691 133.541C88.6737 134.162 87.9415 135.925 88.5617 137.422C89.1807 138.917 90.948 139.65 92.4428 139.03C93.9349 138.41 94.6731 136.643 94.0505 135.149Z" fill="#A2C55D"/>
</svg>
